<?xml version="1.0" standalone="no"?>
<!DOCTYPE svg PUBLIC "-//W3C//DTD SVG 20010904//EN"
 "http://www.w3.org/TR/2001/REC-SVG-20010904/DTD/svg10.dtd">
<svg version="1.0" xmlns="http://www.w3.org/2000/svg"
 width="700.000000pt" height="700.000000pt" viewBox="0 0 700.000000 700.000000"
 preserveAspectRatio="xMidYMid meet">
<metadata>
Created by potrace 1.14, written by Peter Selinger 2001-2017
</metadata>
<g transform="translate(0.000000,700.000000) scale(0.100000,-0.100000)"
fill="#000000" stroke="none">
<path d="M2240 6405 c-129 -27 -249 -123 -311 -250 l-34 -70 0 -1935 0 -1936
38 -76 c62 -127 184 -223 313 -247 72 -14 3753 -13 3824 0 157 31 315 186 346
339 9 46 11 3715 2 3802 -16 154 -137 303 -298 365 -42 15 -176 17 -1935 18
-1382 1 -1905 -2 -1945 -10z m3745 -2249 c0 -1003 -3 -1827 -7 -1831 -8 -8
-3637 -9 -3646 -1 -6 7 -11 3635 -4 3649 2 4 825 7 1831 7 l1827 0 -1 -1824z"/>
<path d="M4091 5638 c-78 -12 -134 -40 -189 -95 -63 -63 -91 -136 -94 -238 -2
-68 -4 -75 -20 -69 -173 55 -316 65 -399 27 -67 -30 -124 -86 -155 -151 -35
-72 -43 -199 -17 -265 22 -56 93 -126 176 -172 l68 -37 -70 -35 c-79 -38 -143
-96 -168 -152 -10 -24 -16 -66 -16 -126 0 -155 52 -250 169 -306 86 -40 176
-42 317 -5 53 14 101 26 105 26 4 0 9 -28 10 -62 2 -81 9 -113 38 -169 57
-115 179 -181 321 -175 106 4 168 30 234 95 72 73 97 141 98 277 l1 42 76 -24
c229 -70 380 -40 468 94 43 65 60 141 54 242 -7 115 -48 171 -179 240 l-73 38
33 19 c95 51 151 96 183 145 29 46 33 62 36 133 9 205 -107 344 -293 351 -66
2 -169 -13 -225 -34 -14 -5 -37 -12 -51 -15 l-26 -7 -6 83 c-3 46 -14 103 -23
128 -57 145 -209 223 -383 197z m213 -691 c155 -71 231 -258 174 -428 -91
-269 -484 -302 -620 -52 -108 199 -4 449 209 503 64 16 176 5 237 -23z"/>
<path d="M2704 3963 c50 -425 283 -788 677 -1051 153 -103 381 -199 534 -226
17 -3 41 -8 55 -11 146 -31 311 -21 506 31 190 50 441 174 550 272 11 9 41 35
68 57 201 161 367 397 446 633 33 100 70 266 70 318 l0 33 -62 -4 c-308 -18
-567 -115 -828 -309 -61 -46 -59 -44 -160 -140 -59 -57 -133 -140 -178 -201
-50 -68 -123 -211 -160 -315 -23 -65 -50 -190 -58 -275 -7 -71 -14 -84 -15
-29 0 21 -2 47 -4 56 -2 9 -6 34 -9 55 -8 54 -43 178 -68 243 -158 400 -578
760 -1022 875 -32 9 -73 17 -90 20 -18 2 -43 6 -56 9 -14 3 -65 8 -114 11
l-89 5 7 -57z"/>
<path d="M1409 5136 c-2 -2 -39 -6 -82 -10 -42 -3 -92 -8 -110 -11 -17 -2 -77
-9 -132 -15 -194 -21 -260 -46 -348 -134 -57 -56 -110 -150 -126 -223 -8 -41
-7 -175 3 -220 2 -12 7 -49 11 -82 3 -33 8 -68 10 -79 2 -10 6 -43 10 -73 3
-30 8 -65 10 -79 2 -14 7 -50 10 -80 3 -30 8 -66 10 -80 2 -14 7 -50 10 -80 3
-30 8 -66 10 -80 7 -38 16 -110 30 -235 3 -27 8 -61 10 -75 2 -14 16 -117 30
-230 14 -113 28 -216 30 -230 4 -24 10 -71 21 -170 3 -25 7 -56 9 -70 2 -14
13 -99 25 -190 21 -170 28 -227 35 -270 2 -14 6 -47 10 -75 3 -27 8 -66 10
-85 3 -19 16 -123 30 -230 34 -271 35 -281 41 -320 3 -19 7 -51 9 -70 2 -19 6
-51 9 -70 2 -19 7 -57 11 -85 6 -50 8 -68 20 -160 12 -91 23 -174 30 -220 3
-16 7 -55 10 -85 22 -221 116 -349 302 -411 57 -19 80 -21 177 -16 61 3 122 8
135 11 13 3 49 8 80 11 31 2 72 7 91 10 19 2 60 7 90 10 30 4 62 8 70 10 8 2
46 6 83 10 37 3 78 8 89 10 12 3 46 7 77 10 55 5 121 13 172 21 31 5 82 11
159 19 30 3 71 8 90 10 19 3 58 7 85 10 28 3 66 8 85 10 39 5 336 41 415 50
28 3 61 8 75 10 24 4 73 9 185 21 28 3 57 7 65 9 8 2 45 7 82 10 37 3 76 8 87
10 11 2 46 6 78 10 32 3 69 8 83 10 14 2 54 7 90 10 36 4 72 8 80 10 8 2 44 6
80 10 36 4 72 8 80 10 9 2 46 6 82 9 37 4 75 8 85 10 10 2 47 7 83 11 36 3 76
8 90 10 14 2 50 7 80 10 80 9 132 15 160 20 14 2 52 6 85 10 33 3 76 8 95 10
19 3 130 16 245 30 298 36 297 36 328 41 128 21 239 117 281 244 20 63 26 118
12 122 -6 2 -211 3 -456 2 -394 -1 -493 -4 -590 -19 -14 -2 -52 -7 -85 -10
-33 -3 -71 -8 -85 -10 -14 -3 -47 -7 -75 -10 -27 -3 -86 -10 -130 -16 -44 -5
-98 -12 -120 -15 -22 -2 -56 -6 -75 -9 -47 -6 -103 -13 -170 -20 -30 -3 -62
-8 -70 -10 -8 -2 -44 -6 -80 -10 -68 -6 -84 -8 -208 -24 -42 -6 -99 -13 -127
-16 -27 -3 -66 -7 -85 -10 -19 -3 -57 -7 -85 -10 -48 -5 -101 -12 -155 -20
-14 -2 -54 -6 -90 -10 -36 -3 -76 -8 -90 -10 -14 -3 -50 -7 -80 -10 -30 -3
-66 -8 -80 -10 -41 -6 -122 -16 -170 -21 -25 -2 -58 -6 -75 -8 -16 -3 -57 -8
-90 -11 -33 -3 -72 -8 -87 -11 -32 -6 -63 -10 -148 -18 -36 -4 -76 -9 -90 -11
-26 -4 -117 -16 -160 -20 -14 -1 -49 -6 -78 -10 -29 -4 -69 -8 -90 -10 -20 -2
-50 -6 -67 -8 -16 -3 -59 -9 -95 -12 -36 -4 -72 -9 -80 -10 -8 -1 -44 -6 -80
-10 -36 -3 -77 -9 -92 -11 -31 -5 -30 -6 -48 146 -6 47 -12 96 -15 110 -2 14
-7 46 -10 72 -3 26 -9 78 -14 115 -6 38 -13 95 -16 128 -4 33 -8 67 -10 75 -2
8 -7 40 -10 70 -3 30 -8 66 -10 80 -7 48 -15 106 -30 232 -9 71 -17 134 -20
140 -2 7 -6 40 -10 73 -6 61 -7 70 -19 165 -9 64 -12 90 -20 145 -3 22 -8 59
-11 83 -3 23 -7 60 -10 82 -3 22 -7 59 -10 83 -5 40 -21 156 -30 225 -3 18 -7
54 -10 80 -3 26 -8 64 -11 84 -3 21 -6 50 -8 65 -13 93 -27 203 -31 231 -3 18
-8 54 -11 80 -3 26 -7 58 -9 72 -2 14 -11 81 -20 150 -8 69 -18 140 -20 158
-3 18 -8 54 -11 80 -3 26 -7 58 -9 72 -3 20 -26 195 -49 375 -2 17 -7 55 -11
85 -4 30 -9 58 -11 62 -6 9 35 16 131 24 44 3 88 8 97 9 9 2 48 7 85 10 114
11 103 -14 103 236 0 206 -1 219 -18 219 -10 0 -21 -2 -23 -4z"/>
</g>
</svg>
